{"title":"Robocop 2014 Webrip XVID AC3 ACAB","uid":9860546,"size":843261924,"categoryP":"video","categoryS":"movies","magnet":"?xt=urn:btih:8b21e3646c9362c240547e2444dd4d457a109d36&amp;dn=Robocop+2014+Webrip+XVID+AC3+ACAB&amp;tr=udp%3A%2F%2Ftracker.openbittorrent.com%3A80&amp;tr=udp%3A%2F%2Fopen.demonii.com%3A1337&amp;tr=udp%3A%2F%2Ftracker.coppersurfer.tk%3A6969&amp;tr=udp%3A%2F%2Fexodus.desync.com%3A6969","seeders":1,"leechers":0,"uploader":"Thhaque","files":2,"time":1396288671,"description":"Robocop 2014 Webrip XVID AC3 ACAB\n\nFormat : AVI\nFormat/Info : Audio Video Interleave\nFile size : 798 MiB\nDuration : 1h 48mn\nOverall bit rate : 1 030 Kbps\n\nVideo\nID : 0\nFormat : MPEG-4 Visual\nFormat profile : Advanced Simple@L5\nFormat settings, BVOP : 2\nFormat settings, QPel : No\nFormat settings, GMC : No warppoints\nFormat settings, Matrix : Default (H.263)\nMuxing mode : Packed bitstream\nCodec ID : XVID\nCodec ID/Hint : XviD\nDuration : 1h 48mn\nBit rate : 893 Kbps\nWidth : 640 pixels\nHeight : 272 pixels\nDisplay aspect ratio : 2.35:1\nFrame rate : 29.970 fps\nColor space : YUV\nChroma subsampling : 4:2:0\nBit depth : 8 bits\nScan type : Progressive\nCompression mode : Lossy\nBits/(Pixel*Frame) : 0.171\nStream size : 692 MiB (87%)\nWriting library : XviD 1.2.1 (UTC 2008-12-04)\n\nAudio\nID : 1\nFormat : AC-3\nFormat/Info : Audio Coding 3\nMode extension : CM (complete main)\nFormat settings, Endianness : Big\nCodec ID : 2000\nDuration : 1h 48mn\nBit rate mode : Constant\nBit rate : 128 Kbps\nChannel(s) : 2 channels\nChannel positions : Front: L R\nSampling rate : 44.1 KHz\nBit depth : 16 bits\nCompression mode : Lossy\nStream size : 99.2 MiB (12%)","torrent":{"xt":"urn:btih:8b21e3646c9362c240547e2444dd4d457a109d36","amp;dn":"Robocop+2014+Webrip+XVID+AC3+ACAB","amp;tr":["udp%3A%2F%2Ftracker.openbittorrent.com%3A80","udp%3A%2F%2Fopen.demonii.com%3A1337","udp%3A%2F%2Ftracker.coppersurfer.tk%3A6969","udp%3A%2F%2Fexodus.desync.com%3A6969"],"infoHash":"8b21e3646c9362c240547e2444dd4d457a109d36","infoHashBuffer":{"type":"Buffer","data":[139,33,227,100,108,147,98,194,64,84,126,36,68,221,77,69,122,16,157,54]},"announce":[],"urlList":[]}}